<?xml version="1.0" encoding="UTF-8" standalone="no"?>
<!-- Created with Inkscape (http://www.inkscape.org/) -->

<svg
   xmlns:dc="http://purl.org/dc/elements/1.1/"
   xmlns:cc="http://creativecommons.org/ns#"
   xmlns:rdf="http://www.w3.org/1999/02/22-rdf-syntax-ns#"
   xmlns:svg="http://www.w3.org/2000/svg"
   xmlns="http://www.w3.org/2000/svg"
   xmlns:sodipodi="http://sodipodi.sourceforge.net/DTD/sodipodi-0.dtd"
   xmlns:inkscape="http://www.inkscape.org/namespaces/inkscape"
   version="1.1"
   width="302"
   height="250"
   id="svg2"
   inkscape:version="0.48.4 r9939"
   sodipodi:docname="Musical_eighth_notes.svg">
  <metadata
     id="metadata3037">
    <rdf:RDF>
      <cc:Work
         rdf:about="">
        <dc:format>image/svg+xml</dc:format>
        <dc:type
           rdf:resource="http://purl.org/dc/dcmitype/StillImage" />
      </cc:Work>
    </rdf:RDF>
  </metadata>
  <sodipodi:namedview
     pagecolor="#ffffff"
     bordercolor="#666666"
     borderopacity="1"
     objecttolerance="10"
     gridtolerance="10"
     guidetolerance="10"
     inkscape:pageopacity="0"
     inkscape:pageshadow="2"
     inkscape:window-width="1920"
     inkscape:window-height="1022"
     id="namedview3035"
     showgrid="false"
     inkscape:zoom="1.45664"
     inkscape:cx="30.304747"
     inkscape:cy="164.84855"
     inkscape:window-x="0"
     inkscape:window-y="27"
     inkscape:window-maximized="1"
     inkscape:current-layer="layer1" />
  <defs
     id="defs4" />
  <g
     transform="translate(-230.42857,-439.86218)"
     id="layer1">
    <path
       d="m 286.92085,448.16129 0,123.34857 0,2.26001 c -4.30735,-2.54636 -9.60676,-4.04422 -15.34423,-4.04422 -14.3989,0 -26.04951,9.45925 -26.04951,21.14292 0,11.68367 11.65061,21.17266 26.04951,21.17266 14.39889,0 25.23648,-8.85692 25.23648,-20.54059 0,-1.53348 0.24802,-0.46839 0.24802,-5.0926 l 0,-79.54615 56.95201,120.42658 85.33865,-109.97227 0,98.66696 c -4.04402,-2.09042 -8.85608,-3.30079 -14.00607,-3.30079 -14.39889,0 -26.0495,9.45925 -26.0495,21.14292 0,11.68367 11.65061,21.17266 26.0495,21.17266 13.21564,0 24.13602,-8.00281 25.84135,-18.34765 l 0.0892,0.14868 0,-0.62447 c 0.10468,-0.77014 0.14868,-1.55645 0.14868,-2.34922 0,-0.79277 -0.044,-1.57908 -0.14868,-2.34921 l 0,-147.82203 -90.09017,83.7695 -74.26526,-119.26226 5e-5,0 z"
       id="path2832"
       style="fill:#000000;fill-opacity:1;stroke:none"
       inkscape:connector-curvature="0"
       sodipodi:nodetypes="cccsssssccccssscccscccccc" />
  </g>
</svg>
